<?xml version="1.0" standalone="no"?>
<!DOCTYPE svg PUBLIC "-//W3C//DTD SVG 20010904//EN"
 "http://www.w3.org/TR/2001/REC-SVG-20010904/DTD/svg10.dtd">
<svg version="1.0" xmlns="http://www.w3.org/2000/svg"
 width="1024.000000pt" height="1024.000000pt" viewBox="0 0 1024.000000 1024.000000"
 preserveAspectRatio="xMidYMid meet">
<metadata>
Created by potrace 1.14, written by Peter Selinger 2001-2017
</metadata>
<g transform="translate(0.000000,1024.000000) scale(0.100000,-0.100000)"
fill="#000000" stroke="none">
<path d="M4770 9109 c-556 -59 -1047 -203 -1540 -450 -223 -112 -398 -221
-600 -373 -140 -106 -154 -117 -259 -210 -323 -285 -644 -684 -883 -1099 -371
-645 -539 -1358 -499 -2120 32 -605 169 -1126 430 -1632 163 -318 394 -650
605 -873 28 -30 55 -60 59 -67 27 -48 408 -379 587 -511 230 -168 589 -366
885 -487 556 -228 1264 -341 1855 -297 584 43 1138 201 1655 469 407 212 705
430 1025 751 431 431 764 954 945 1482 178 519 249 995 225 1522 -17 399 -65
680 -174 1035 -64 209 -220 553 -354 781 -139 238 -295 453 -490 679 -482 554
-1071 945 -1807 1201 -207 72 -548 148 -825 186 -146 19 -702 28 -840 13z
m955 -1053 c233 -49 493 -153 657 -264 176 -118 520 -434 503 -461 -8 -13 12
-41 29 -41 6 0 3 5 -6 11 -10 5 -18 15 -18 22 0 7 12 -1 25 -18 14 -16 32 -37
39 -45 8 -8 13 -27 11 -43 -2 -15 1 -25 5 -22 5 3 7 13 4 23 -7 21 50 -44 68
-78 7 -14 22 -35 33 -48 44 -51 165 -258 160 -272 -4 -8 -3 -11 1 -7 10 10 76
-122 70 -140 -3 -8 -2 -12 3 -9 9 6 81 -143 81 -168 0 -8 4 -16 8 -18 16 -6
106 -271 155 -458 127 -478 161 -1050 91 -1514 -9 -55 -20 -128 -24 -161 -5
-33 -18 -106 -29 -162 -12 -55 -21 -104 -21 -108 0 -3 -5 -3 -12 1 -7 4 -8 3
-4 -5 10 -15 -3 -73 -15 -66 -5 4 -6 0 -3 -8 5 -15 -9 -78 -28 -126 -6 -14
-12 -32 -14 -40 -15 -77 -95 -272 -107 -264 -6 3 -7 1 -4 -5 9 -14 -3 -43 -14
-36 -5 3 -6 -1 -3 -9 7 -20 -57 -158 -70 -150 -6 3 -8 3 -4 -2 4 -4 -9 -39
-28 -78 -27 -52 -38 -67 -45 -56 -7 10 -8 7 -7 -11 2 -16 -2 -24 -10 -22 -8 1
-11 -2 -7 -8 6 -10 -70 -142 -87 -148 -4 -2 -8 -8 -8 -14 0 -14 -51 -73 -63
-73 -6 0 -12 -7 -14 -15 -4 -13 -3 -13 6 0 6 8 11 11 11 6 0 -6 -19 -33 -42
-60 -24 -28 -47 -57 -53 -65 -34 -47 -282 -291 -292 -287 -6 3 -10 0 -8 -7 4
-11 -196 -170 -231 -184 -10 -3 -47 -26 -83 -50 -36 -24 -72 -41 -79 -38 -7 3
-10 0 -7 -5 8 -12 -43 -33 -57 -24 -6 4 -8 3 -5 -3 9 -14 -63 -47 -238 -109
-117 -42 -367 -91 -407 -81 -10 3 -16 1 -12 -4 7 -12 -284 -11 -366 1 -36 6
-90 13 -120 17 -42 5 -50 8 -35 15 15 6 13 7 -8 3 -40 -8 -225 48 -337 102
-277 134 -501 345 -623 588 -151 303 -155 710 -9 1000 46 91 104 169 192 255
132 129 284 212 446 240 79 14 206 9 227 -9 9 -7 16 -43 20 -93 22 -282 295
-424 485 -253 60 54 105 137 126 232 21 96 20 170 -5 298 -18 98 -19 109 -4
131 28 43 93 27 203 -48 69 -47 123 -68 181 -68 114 0 191 69 199 179 11 151
-65 238 -277 317 -232 87 -525 82 -618 -11 -47 -47 -44 -78 18 -186 76 -131
101 -201 107 -291 5 -88 -6 -126 -49 -162 -41 -35 -90 -41 -136 -17 -55 27
-64 41 -143 200 -57 113 -83 154 -128 199 -66 66 -173 122 -269 142 -97 20
-289 8 -383 -23 -108 -36 -146 -51 -161 -63 -8 -6 -36 -23 -64 -39 -27 -15
-69 -43 -92 -61 -39 -32 -70 -47 -45 -22 9 9 7 14 -6 24 -9 8 -21 13 -27 13
-5 0 -2 -4 8 -10 28 -16 14 -50 -46 -109 -59 -59 -140 -164 -171 -220 -22 -38
-40 -60 -52 -60 -4 0 3 11 16 25 17 18 19 25 9 25 -8 0 -21 -6 -28 -12 -11
-11 -12 -9 -6 10 8 26 2 27 -30 6 -14 -9 -25 -24 -24 -33 0 -12 2 -11 9 4 5
11 9 15 9 9 1 -17 -25 -65 -32 -58 -3 3 -13 -8 -22 -25 -8 -17 -11 -31 -6 -31
5 0 12 6 14 13 3 7 6 5 6 -5 1 -10 5 -18 10 -18 5 0 8 -16 6 -36 -3 -27 0 -34
10 -30 9 3 12 0 8 -9 -3 -8 -9 -12 -14 -9 -6 3 -7 -6 -4 -23 5 -22 4 -25 -4
-13 -10 13 -12 13 -21 0 -13 -20 -13 -7 1 24 7 14 8 33 4 43 -5 10 -9 24 -9
30 -2 24 -21 14 -34 -16 -8 -21 -9 -31 -1 -31 6 0 3 -7 -6 -17 -10 -9 -15 -26
-12 -39 2 -13 -1 -22 -6 -21 -17 3 -34 -64 -29 -115 3 -39 8 -48 23 -48 15 0
19 7 19 33 0 17 3 50 7 72 l6 39 13 -38 c11 -32 11 -53 -2 -134 -9 -53 -18
-104 -21 -112 -3 -8 -6 -28 -7 -45 -1 -16 -6 -91 -11 -165 -8 -108 -11 -126
-16 -90 -7 44 -7 44 -3 -5 3 -27 6 -66 7 -87 1 -20 5 -34 9 -32 4 3 7 -19 6
-48 -1 -29 2 -84 6 -122 8 -57 7 -68 -5 -64 -10 3 -17 38 -24 129 -7 92 -11
110 -13 69 -2 -30 -7 -59 -12 -63 -15 -17 -30 94 -28 216 l2 122 7 -115 c5
-101 6 -95 3 47 -1 89 -7 170 -13 180 -8 14 -10 8 -9 -27 1 -25 -1 -90 -6
-145 -4 -57 -2 -160 4 -240 6 -77 11 -156 11 -175 1 -29 2 -32 10 -15 8 16 9
14 5 -10 -3 -16 -1 -46 4 -65 5 -24 8 -28 9 -12 1 12 7 22 16 22 11 0 13 -8 8
-32 -4 -21 -3 -29 5 -24 6 3 10 30 9 60 -4 102 26 85 37 -21 4 -35 21 -131 37
-211 17 -81 31 -158 31 -172 0 -14 5 -28 12 -32 8 -6 8 -8 -1 -8 -16 0 -25 16
-30 59 -7 49 -13 53 -13 7 0 -39 -23 -48 -27 -10 -3 18 -2 18 6 -1 12 -24 12
-1 2 35 -7 22 -9 18 -16 -25 l-9 -50 -17 80 c-20 87 -20 90 -4 -79 2 -22 0
-34 -4 -27 -6 9 -13 6 -27 -12 -21 -25 -61 -41 -134 -52 -73 -12 -106 -34
-101 -67 0 -5 -4 -8 -10 -8 -5 0 -7 -4 -4 -10 3 -5 -1 -10 -9 -10 -22 0 -20
-13 4 -28 21 -13 27 -32 10 -32 -5 0 -9 3 -9 8 5 28 -5 20 -17 -13 l-14 -40 6
43 c5 36 3 42 -13 42 -15 0 -16 -2 -3 -11 11 -8 12 -12 3 -15 -8 -4 -10 -18
-7 -37 4 -30 4 -30 -6 -8 -6 14 -8 31 -6 38 3 7 1 25 -5 40 -10 27 4 48 24 36
5 -3 3 -9 -4 -14 -11 -7 -10 -9 3 -9 16 0 38 27 38 48 0 11 -48 3 -56 -9 -3
-5 -13 -9 -24 -9 -15 0 -22 19 -44 113 -172 753 -124 1463 133 1976 206 409
526 697 911 819 125 39 224 58 402 76 206 21 303 57 395 145 63 59 114 144
157 262 71 189 118 238 226 230 34 -2 97 -73 111 -124 24 -91 -34 -300 -106
-377 -63 -67 -62 -122 4 -165 109 -70 413 -64 595 12 124 52 222 131 269 218
16 30 21 57 21 105 -1 119 -66 199 -169 208 -65 5 -121 -19 -192 -82 -109 -98
-170 -119 -214 -75 -21 21 -21 27 -13 128 21 255 -9 395 -110 499 -52 55 -104
82 -171 89 -181 19 -335 -145 -335 -357 l0 -67 -55 -7 c-71 -8 -216 8 -288 33
-205 71 -406 277 -492 505 -98 261 -82 561 45 821 60 123 127 213 244 330 215
214 497 346 836 389 19 2 118 3 220 1 149 -3 208 -9 305 -29z m-2007 -1631 c0
-16 -2 -15 -8 5 -4 14 -8 34 -8 45 0 16 2 15 8 -5 4 -14 8 -34 8 -45z m22 -42
c0 -8 7 -25 16 -38 9 -14 13 -25 10 -25 -4 0 0 -13 9 -30 19 -36 19 -36 -1
-44 -12 -5 -14 -1 -8 16 6 20 5 21 -10 6 -14 -15 -14 -19 -1 -45 13 -25 15
-25 15 -7 0 12 7 25 15 28 18 7 78 -81 70 -102 -3 -8 0 -10 7 -6 8 5 9 1 4
-12 -6 -15 -5 -16 5 -7 9 9 16 6 32 -13 10 -14 20 -36 21 -49 1 -17 4 -21 14
-13 6 6 12 6 12 1 0 -5 32 -42 70 -83 39 -41 70 -71 70 -66 0 4 17 -7 38 -25
20 -18 36 -37 34 -42 -1 -5 1 -6 6 -3 12 7 54 -23 47 -34 -3 -4 1 -7 8 -7 6 1
38 -12 69 -28 l58 -29 -105 -18 c-242 -41 -501 -125 -611 -200 -23 -15 -45
-28 -48 -28 -9 0 -149 -94 -198 -132 -21 -16 -42 -27 -47 -23 -6 3 -25 -8 -43
-25 -21 -20 -25 -26 -10 -18 12 7 22 16 22 19 0 4 8 10 18 13 9 4 -5 -15 -31
-40 -35 -34 -51 -44 -57 -35 -5 9 -10 10 -14 2 -4 -6 -2 -11 5 -11 8 0 5 -7
-6 -20 -10 -11 -22 -17 -27 -14 -4 3 -7 1 -6 -4 2 -4 -28 -45 -67 -90 -49 -57
-72 -78 -78 -69 -6 8 -7 5 -3 -7 6 -18 -29 -65 -40 -53 -2 2 2 10 11 17 21 18
19 33 -5 25 -11 -3 -20 -2 -20 3 0 11 48 27 69 23 12 -2 11 2 -2 22 -16 25
-16 26 16 46 18 11 29 21 25 21 -17 0 17 61 48 85 19 14 34 31 34 36 0 6 -3 8
-7 6 -5 -3 -6 19 -5 49 5 67 30 77 30 12 0 -74 2 -79 17 -65 7 6 13 14 13 17
-1 17 5 28 26 53 14 16 27 28 30 27 4 -1 10 0 14 3 4 2 1 2 -5 1 -16 -4 -17
18 -1 34 12 12 10 13 -12 16 -5 0 -10 5 -9 10 0 5 -5 13 -13 17 -9 6 -4 9 15
9 25 0 27 3 27 40 0 22 -4 40 -10 40 -5 0 -10 9 -10 20 0 16 -7 20 -35 20 -28
0 -35 4 -35 20 0 16 7 20 35 20 34 0 35 1 35 40 0 40 0 40 40 40 l39 0 3 118
3 117 78 3 77 3 0 -41 c0 -22 5 -40 10 -40 6 0 10 18 10 40 0 22 -4 40 -10 40
-5 0 -10 18 -10 40 l0 40 40 0 40 0 0 40 0 40 73 0 73 0 17 34 c15 33 15 36
-8 82 -13 26 -30 51 -37 55 -9 6 -9 9 -1 9 8 0 12 20 11 60 -1 48 -3 58 -14
49 -9 -8 -11 -6 -7 9 5 21 33 26 33 5z m-34 -208 c8 -19 -3 -65 -15 -65 -12 0
-22 45 -15 64 8 20 23 21 30 1z m-732 -1227 l-7 -23 24 20 23 20 -23 -32 c-12
-18 -23 -33 -25 -33 -2 0 0 46 3 63 0 4 4 7 7 7 3 0 2 -10 -2 -22z m-54 -72
c0 -2 -7 -9 -15 -16 -13 -11 -14 -10 -9 4 5 14 24 23 24 12z m21 -13 c-5 -10
-17 -27 -26 -38 -16 -19 -17 -19 -3 5 26 46 29 50 34 50 3 0 0 -8 -5 -17z
m-48 -78 c-3 -9 -8 -14 -10 -11 -3 3 -2 9 2 15 9 16 15 13 8 -4z m-110 -190
c-3 -9 -8 -14 -10 -11 -3 3 -2 9 2 15 9 16 15 13 8 -4z m770 -356 c3 -12 10
-18 16 -14 8 4 7 -2 -1 -19 -10 -24 -12 -24 -23 -8 -13 20 -17 62 -6 62 5 0
11 -9 14 -21z m-22 -116 c-12 -20 -14 -14 -5 12 4 9 9 14 11 11 3 -2 0 -13 -6
-23z m-68 -58 c-3 -9 -8 -14 -10 -11 -3 3 -2 9 2 15 9 16 15 13 8 -4z m-36
-37 c-3 -8 -6 -5 -6 6 -1 11 2 17 5 13 3 -3 4 -12 1 -19z m50 -64 c-9 -29 -12
-33 -18 -18 -3 11 -2 21 2 22 5 2 9 10 9 18 0 8 4 14 9 14 5 0 4 -16 -2 -36z
m-70 -16 c-3 -8 -6 -5 -6 6 -1 11 2 17 5 13 3 -3 4 -12 1 -19z m-70 -820 c-3
-7 -5 -2 -5 12 0 14 2 19 5 13 2 -7 2 -19 0 -25z m40 -30 c-2 -13 -4 -3 -4 22
0 25 2 35 4 23 2 -13 2 -33 0 -45z m13 -62 c0 -3 -4 -8 -10 -11 -5 -3 -10 -1
-10 4 0 6 5 11 10 11 6 0 10 -2 10 -4z m148 -601 c-3 -3 -9 2 -12 12 -6 14 -5
15 5 6 7 -7 10 -15 7 -18z m-261 -1 c-3 -3 -12 -4 -19 -1 -8 3 -5 6 6 6 11 1
17 -2 13 -5z m293 -108 c7 -25 10 -55 7 -66 -3 -11 -1 -23 4 -26 5 -3 9 -10 9
-16 0 -7 -6 -6 -15 2 -17 14 -21 0 -4 -17 7 -7 7 -13 1 -17 -16 -10 -24 28
-12 58 12 33 13 59 1 52 -4 -3 -12 -25 -16 -48 -4 -24 -9 -38 -11 -32 -5 11 7
72 21 109 l8 20 -17 -20 c-17 -20 -17 -20 -7 2 6 12 8 29 4 39 -4 11 -2 15 4
11 6 -4 16 -27 23 -51z m-415 -85 c3 -5 1 -12 -5 -16 -5 -3 -10 1 -10 9 0 18
6 21 15 7z m-41 -47 c5 -14 4 -15 -9 -4 -17 14 -19 20 -6 20 5 0 12 -7 15 -16z
m429 -41 c-9 -7 -22 -13 -27 -13 -6 1 -2 6 10 13 12 7 19 19 17 27 -4 13 -3
13 6 0 8 -11 6 -18 -6 -27z m-364 -4 c-12 -7 -11 -9 1 -10 8 -1 19 -1 23 0 5
1 6 -3 2 -9 -4 -6 -16 -5 -36 5 -36 19 -36 23 -3 23 18 0 22 -3 13 -9z m116
-47 c-3 -3 -11 0 -18 7 -9 10 -8 11 6 5 10 -3 15 -9 12 -12z m188 11 c-7 -2
-19 -2 -25 0 -7 3 -2 5 12 5 14 0 19 -2 13 -5z m-46 -9 c-3 -3 -12 -4 -19 -1
-8 3 -5 6 6 6 11 1 17 -2 13 -5z"/>
<path d="M6350 7596 c0 -2 8 -10 18 -17 15 -13 16 -12 3 4 -13 16 -21 21 -21
13z"/>
<path d="M6474 7542 c-9 -5 -8 -10 1 -19 11 -10 13 -9 12 7 -1 11 -1 20 -2 20
0 0 -5 -4 -11 -8z"/>
<path d="M6578 7463 c7 -3 16 -2 19 1 4 3 -2 6 -13 5 -11 0 -14 -3 -6 -6z"/>
<path d="M6630 7450 c12 -7 13 -13 4 -28 -10 -15 -8 -21 7 -31 11 -6 26 -8 34
-4 12 7 9 15 -13 41 -15 17 -32 32 -37 32 -6 0 -3 -5 5 -10z"/>
<path d="M6546 7438 c5 -8 2 -9 -11 -4 -11 4 -6 -7 16 -32 19 -21 38 -37 43
-34 4 2 -4 15 -18 27 -17 14 -24 28 -20 39 3 9 1 16 -6 16 -6 0 -8 -5 -4 -12z"/>
<path d="M6600 7440 c8 -5 20 -10 25 -10 6 0 3 5 -5 10 -8 5 -19 10 -25 10 -5
0 -3 -5 5 -10z"/>
<path d="M6585 7410 c3 -5 10 -10 16 -10 5 0 9 5 9 10 0 6 -7 10 -16 10 -8 0
-12 -4 -9 -10z"/>
<path d="M6720 7401 c0 -13 39 -35 48 -27 3 3 0 6 -6 6 -6 0 -18 7 -26 16 -9
8 -16 11 -16 5z"/>
<path d="M6610 7384 c0 -3 5 -15 11 -26 10 -18 9 -20 -5 -15 -24 9 -20 -1 17
-38 17 -18 52 -63 77 -99 25 -36 50 -64 56 -62 13 5 34 -13 34 -27 0 -5 -7 -3
-17 4 -15 13 -15 12 -3 -8 8 -12 19 -21 24 -20 6 1 12 -8 14 -21 2 -15 9 -22
20 -20 13 2 17 -4 15 -27 0 -16 1 -24 4 -17 6 16 33 -3 33 -24 0 -8 5 -14 11
-14 6 0 8 -9 4 -20 -5 -17 -2 -19 24 -16 28 3 30 1 25 -23 -4 -18 -3 -22 4
-13 7 11 10 11 15 -2 4 -11 1 -16 -11 -16 -14 -1 -14 -2 3 -12 11 -6 23 -16
27 -22 16 -23 12 56 -4 97 -11 27 -53 57 -81 57 -8 0 -17 9 -20 20 -4 17 0 20
30 20 31 0 33 2 19 15 -18 18 -52 20 -60 3 -4 -7 -4 -3 -2 10 4 23 -19 32 -27
10 -2 -7 -8 -10 -12 -6 -4 4 -3 13 3 20 14 18 3 67 -17 77 -9 5 -18 22 -19 37
-1 15 -11 33 -22 41 -11 8 -20 20 -20 27 0 7 -11 23 -25 36 -13 12 -22 26 -20
31 3 4 -3 5 -13 2 -11 -2 -26 2 -34 11 -9 8 -18 12 -22 9 -3 -3 -8 2 -12 11
-6 15 -24 23 -24 10z m108 -129 c-3 -3 -9 2 -12 12 -6 14 -5 15 5 6 7 -7 10
-15 7 -18z m-18 -10 c14 -19 14 -19 -2 -6 -10 7 -18 18 -18 24 0 6 1 8 3 6 1
-2 9 -13 17 -24z m97 -73 c0 -13 0 -22 -1 -20 0 2 -9 12 -18 23 -16 20 -16 21
0 21 11 0 18 -9 19 -24z m-27 -13 c0 -6 -4 -7 -10 -4 -5 3 -10 11 -10 16 0 6
5 7 10 4 6 -3 10 -11 10 -16z"/>
<path d="M6790 7386 c0 -3 9 -10 20 -16 11 -6 20 -8 20 -6 0 3 -9 10 -20 16
-11 6 -20 8 -20 6z"/>
<path d="M6875 7280 c3 -5 8 -10 11 -10 2 0 4 5 4 10 0 6 -5 10 -11 10 -5 0
-7 -4 -4 -10z"/>
<path d="M6980 7176 c0 -2 7 -9 15 -16 9 -7 15 -8 15 -2 0 5 -7 12 -15 16 -8
3 -15 4 -15 2z"/>
<path d="M7050 7061 c0 -6 4 -13 10 -16 6 -3 7 1 4 9 -7 18 -14 21 -14 7z"/>
<path d="M6940 6851 c0 -6 4 -13 10 -16 6 -3 7 1 4 9 -7 18 -14 21 -14 7z"/>
<path d="M7025 6813 c3 -3 0 -12 -6 -19 -8 -10 -7 -19 4 -34 13 -19 14 -18 12
15 -1 20 -5 38 -9 40 -3 3 -4 2 -1 -2z"/>
<path d="M6933 6661 c-14 -15 -26 -48 -33 -95 -6 -39 -25 -100 -41 -135 l-29
-63 44 -137 c43 -132 54 -174 95 -351 21 -95 44 -242 61 -400 15 -129 15 -567
1 -681 -6 -46 -13 -106 -16 -134 -6 -67 -18 -135 -50 -282 -14 -67 -25 -125
-23 -130 1 -4 -3 -19 -9 -33 -6 -14 -29 -81 -51 -150 -56 -178 -181 -462 -242
-549 -61 -88 -91 -142 -84 -152 4 -7 3 -9 -4 -5 -6 3 -20 -6 -31 -21 -12 -16
-31 -41 -44 -58 -92 -122 -260 -290 -392 -390 -49 -37 -89 -72 -87 -77 1 -5
-2 -7 -8 -3 -6 3 -43 -12 -84 -35 -160 -88 -361 -152 -539 -171 -152 -17 -360
-6 -492 26 l-109 26 -21 -23 c-12 -13 -32 -45 -45 -71 -16 -32 -32 -50 -49
-54 -39 -10 -101 -7 -114 6 -6 6 -18 11 -26 10 -11 0 -8 -4 7 -11 12 -6 22
-16 22 -23 0 -17 209 -118 305 -148 292 -91 644 -96 956 -13 115 31 307 117
426 192 53 33 161 111 173 124 3 3 21 17 40 30 41 27 300 286 300 299 0 5 4
11 8 13 5 2 24 23 43 49 159 213 279 428 378 682 17 43 31 87 31 98 0 10 4 19
9 19 5 0 12 15 15 33 4 19 15 52 26 75 11 23 20 47 20 55 0 8 18 86 40 174 22
88 44 193 50 234 5 41 16 121 24 179 45 323 38 792 -14 1040 -5 25 -21 101
-36 170 -22 107 -45 192 -74 275 -3 11 -26 79 -50 150 -23 72 -47 134 -51 140
-5 5 -9 16 -9 25 -1 8 -9 33 -20 55 -11 22 -19 48 -20 57 0 9 -5 29 -12 44
-10 22 -10 28 5 39 9 7 17 22 17 33 0 13 7 22 21 24 l21 3 -21 19 c-21 19 -21
19 -21 -2 0 -16 -6 -22 -22 -23 -43 -2 -63 2 -75 18 -6 8 -16 12 -21 9 -6 -3
-13 0 -15 6 -4 10 -8 10 -15 -1 -8 -10 -10 -11 -14 0 -3 8 -11 5 -25 -10z"/>
<path d="M7410 5500 c0 -11 2 -20 4 -20 2 0 6 9 9 20 3 11 1 20 -4 20 -5 0 -9
-9 -9 -20z"/>
<path d="M7433 5240 c0 -25 2 -35 4 -22 2 12 2 32 0 45 -2 12 -4 2 -4 -23z"/>
<path d="M7433 4920 c0 -25 2 -35 4 -22 2 12 2 32 0 45 -2 12 -4 2 -4 -23z"/>
<path d="M4150 4856 c0 -2 7 -6 15 -10 8 -3 15 -1 15 4 0 6 -7 10 -15 10 -8 0
-15 -2 -15 -4z"/>
<path d="M4478 4848 c5 -5 16 -8 23 -6 8 3 3 7 -10 11 -17 4 -21 3 -13 -5z"/>
<path d="M4538 4853 c7 -3 16 -2 19 1 4 3 -2 6 -13 5 -11 0 -14 -3 -6 -6z"/>
<path d="M4175 4820 c3 -5 13 -10 21 -10 8 0 14 5 14 10 0 6 -9 10 -21 10 -11
0 -17 -4 -14 -10z"/>
<path d="M4108 4813 c6 -2 18 -2 25 0 6 3 1 5 -13 5 -14 0 -19 -2 -12 -5z"/>
<path d="M4060 4786 c0 -2 7 -7 16 -10 8 -3 12 -2 9 4 -6 10 -25 14 -25 6z"/>
<path d="M4048 4753 c7 -3 16 -2 19 1 4 3 -2 6 -13 5 -11 0 -14 -3 -6 -6z"/>
<path d="M3913 4725 c0 -8 4 -12 9 -9 5 3 6 10 3 15 -9 13 -12 11 -12 -6z"/>
<path d="M3960 4720 c-13 -8 -12 -10 3 -10 9 0 17 5 17 10 0 12 -1 12 -20 0z"/>
<path d="M4004 4714 c-18 -14 -18 -15 4 -4 12 6 22 13 22 15 0 8 -5 6 -26 -11z"/>
<path d="M7410 4713 c0 -5 5 -15 10 -23 8 -12 10 -11 10 8 0 12 -4 22 -10 22
-5 0 -10 -3 -10 -7z"/>
<path d="M3855 4670 c3 -5 11 -10 16 -10 6 0 7 5 4 10 -3 6 -11 10 -16 10 -6
0 -7 -4 -4 -10z"/>
<path d="M3890 4660 c0 -11 -5 -20 -12 -20 -6 0 -9 -2 -6 -5 3 -3 12 -3 21 0
20 8 30 45 11 45 -8 0 -14 -9 -14 -20z"/>
<path d="M3742 4586 c7 -8 15 -12 17 -11 5 6 -10 25 -20 25 -5 0 -4 -6 3 -14z"/>
<path d="M3705 4560 c3 -5 11 -10 16 -10 6 0 7 5 4 10 -3 6 -11 10 -16 10 -6
0 -7 -4 -4 -10z"/>
<path d="M3755 4539 c-6 -8 -4 -10 5 -4 10 6 12 4 6 -11 -6 -15 -5 -17 5 -6 9
9 10 15 2 23 -8 8 -13 7 -18 -2z"/>
<path d="M7612 4510 c0 -14 2 -19 5 -12 2 6 2 18 0 25 -3 6 -5 1 -5 -13z"/>
<path d="M3643 4494 c-12 -16 -22 -38 -24 -49 -3 -11 -8 -19 -13 -17 -9 4 -46
-46 -46 -62 0 -5 7 -3 15 4 19 16 19 0 0 -26 -13 -16 -16 -17 -25 -4 -7 11
-10 11 -10 2 0 -7 8 -15 18 -18 9 -3 24 -9 34 -14 23 -12 43 36 29 71 l-10 24
-1 -25 c-1 -23 -2 -23 -9 -5 -6 14 -4 23 6 28 19 11 44 1 39 -15 -1 -7 -1 -10
1 -6 3 4 5 11 6 15 1 4 19 23 40 42 21 18 35 36 32 40 -4 3 -14 -5 -24 -17
-15 -21 -19 -22 -30 -9 -8 10 -9 17 -1 22 5 3 10 2 10 -4 0 -6 12 1 26 16 29
28 24 46 -5 19 -18 -16 -20 -16 -29 -1 -8 15 -11 14 -29 -11z m19 -16 c-7 -7
-12 -20 -12 -30 0 -10 -4 -18 -10 -18 -5 0 -10 6 -10 13 0 17 31 60 38 52 3
-3 0 -11 -6 -17z m-48 -143 c-7 -16 -24 -21 -24 -6 0 8 7 13 27 20 1 1 0 -6
-3 -14z"/>
<path d="M7520 4171 c0 -6 4 -13 10 -16 6 -3 7 1 4 9 -7 18 -14 21 -14 7z"/>
<path d="M3441 3894 c0 -11 3 -14 6 -6 3 7 2 16 -1 19 -3 4 -6 -2 -5 -13z"/>
<path d="M7466 3837 c3 -10 9 -15 12 -12 3 3 0 11 -7 18 -10 9 -11 8 -5 -6z"/>
<path d="M3351 3798 c-13 -37 -23 -128 -13 -128 5 0 10 -33 11 -72 1 -40 6
-75 10 -78 5 -3 11 -14 13 -25 3 -11 4 30 3 90 -2 64 -8 122 -16 139 -12 25
-11 30 6 45 11 9 21 24 21 34 2 25 -25 21 -35 -5z"/>
<path d="M3412 3776 c4 -5 3 -19 -3 -33 -5 -13 -5 -22 0 -19 15 9 20 46 8 53
-7 3 -9 3 -5 -1z"/>
<path d="M3365 3743 c3 -8 5 -20 6 -26 0 -7 4 -3 9 8 12 29 12 32 -5 32 -10 0
-14 -6 -10 -14z"/>
<path d="M3385 3690 c-4 -12 -5 -24 -2 -27 3 -2 8 5 12 17 4 12 5 24 2 27 -3
2 -8 -5 -12 -17z"/>
<path d="M3391 3614 c0 -11 3 -14 6 -6 3 7 2 16 -1 19 -3 4 -6 -2 -5 -13z"/>
<path d="M7211 3284 c0 -11 3 -14 6 -6 3 7 2 16 -1 19 -3 4 -6 -2 -5 -13z"/>
<path d="M3401 3104 c0 -11 3 -14 6 -6 3 7 2 16 -1 19 -3 4 -6 -2 -5 -13z"/>
<path d="M3411 2974 c0 -11 3 -14 6 -6 3 7 2 16 -1 19 -3 4 -6 -2 -5 -13z"/>
<path d="M3422 2620 c0 -14 2 -19 5 -12 2 6 2 18 0 25 -3 6 -5 1 -5 -13z"/>
<path d="M6710 2631 c0 -6 4 -13 10 -16 6 -3 7 1 4 9 -7 18 -14 21 -14 7z"/>
<path d="M4794 2142 c2 -9 8 -17 15 -18 8 -2 8 -1 0 3 -8 4 -8 7 1 13 9 5 8 9
-3 13 -10 4 -14 0 -13 -11z"/>
<path d="M4838 2133 c7 -3 16 -2 19 1 4 3 -2 6 -13 5 -11 0 -14 -3 -6 -6z"/>
<path d="M5195 2061 c-6 -11 13 -26 22 -17 4 3 0 6 -8 7 -8 0 -6 4 6 9 16 7
17 9 3 9 -9 1 -19 -3 -23 -8z"/>
<path d="M5258 2053 c7 -3 16 -2 19 1 4 3 -2 6 -13 5 -11 0 -14 -3 -6 -6z"/>
<path d="M5128 2043 c6 -2 18 -2 25 0 6 3 1 5 -13 5 -14 0 -19 -2 -12 -5z"/>
<path d="M3730 6330 c0 -5 5 -10 10 -10 6 0 10 5 10 10 0 6 -4 10 -10 10 -5 0
-10 -4 -10 -10z"/>
<path d="M3790 6216 c0 -9 5 -16 10 -16 6 0 10 4 10 9 0 6 -4 13 -10 16 -5 3
-10 -1 -10 -9z"/>
<path d="M3840 6113 c0 -7 -7 -13 -15 -13 -8 0 -15 -5 -15 -10 0 -7 6 -7 18
-1 13 7 22 7 29 0 6 -6 15 -4 24 8 13 16 12 17 -3 5 -14 -11 -18 -10 -27 5 -6
10 -11 12 -11 6z"/>
<path d="M3936 6022 c-3 -5 1 -9 9 -9 8 0 12 4 9 9 -3 4 -7 8 -9 8 -2 0 -6 -4
-9 -8z"/>
<path d="M3930 5935 c7 -9 15 -13 17 -11 7 7 -7 26 -19 26 -6 0 -6 -6 2 -15z"/>
<path d="M4103 5872 c10 -10 14 -22 10 -27 -5 -4 -2 -5 5 -1 11 6 10 12 -4 27
-9 10 -19 19 -22 19 -3 0 2 -8 11 -18z"/>
<path d="M3360 5510 c0 -5 5 -10 10 -10 6 0 10 5 10 10 0 6 -4 10 -10 10 -5 0
-10 -4 -10 -10z"/>
<path d="M3330 5356 c0 -2 7 -7 16 -10 8 -3 12 -2 9 4 -6 10 -25 14 -25 6z"/>
<path d="M3121 5164 c0 -11 3 -14 6 -6 3 7 2 16 -1 19 -3 4 -6 -2 -5 -13z"/>
<path d="M3065 5080 c-3 -5 -1 -10 4 -10 6 0 11 5 11 10 0 6 -2 10 -4 10 -3 0
-8 -4 -11 -10z"/>
<path d="M3540 4221 c0 -5 5 -13 10 -16 6 -3 10 -2 10 4 0 5 -4 13 -10 16 -5
3 -10 2 -10 -4z"/>
</g>
</svg>
